<svg xmlns="http://www.w3.org/2000/svg" viewBox="0 0 256 256" role="img" aria-label="LooFinder logo option 4">
  <rect width="256" height="256" rx="56" fill="#DBEAFE"/>
  <rect x="56" y="62" width="144" height="132" rx="36" fill="#2563EB"/>
  <rect x="76" y="82" width="104" height="92" rx="26" fill="#F8FAFC"/>
  <circle cx="166" cy="128" r="18" fill="#DBEAFE" stroke="#2563EB" stroke-width="8"/>
  <circle cx="112" cy="116" r="6" fill="#1E293B"/>
  <circle cx="140" cy="116" r="6" fill="#1E293B"/>
  <path d="M102 138c8 11 21 11 29 0" fill="none" stroke="#1E293B" stroke-width="6" stroke-linecap="round"/>
  <path d="M194 52c-10 0-18 8-18 18 0 11 11 24 16 30a2 2 0 0 0 4 0c5-6 16-19 16-30 0-10-8-18-18-18z" fill="#0EA5E9"/>
</svg>
