<svg xmlns="http://www.w3.org/2000/svg" viewBox="0 0 256 256" role="img" aria-label="LooFinder logo option 5">
  <defs>
    <linearGradient id="bg5" x1="0" y1="0" x2="1" y2="1">
      <stop offset="0%" stop-color="#0EA5E9"/>
      <stop offset="100%" stop-color="#1D4ED8"/>
    </linearGradient>
  </defs>
  <rect width="256" height="256" rx="56" fill="#0B1220"/>
  <path d="M128 34c-36 0-66 30-66 66 0 45 45 97 62 115a6 6 0 0 0 8 0c17-18 62-70 62-115 0-36-30-66-66-66z" fill="url(#bg5)"/>
  <circle cx="128" cy="102" r="34" fill="#F8FAFC"/>
  <path d="M128 74l10 20 22 8-22 8-10 20-10-20-22-8 22-8z" fill="#1D4ED8"/>
  <circle cx="128" cy="102" r="6" fill="#0EA5E9"/>
</svg>
