<svg xmlns="http://www.w3.org/2000/svg" viewBox="0 0 880 220" role="img" aria-label="LooFinder wordmark">
  <defs>
    <linearGradient id="iconBg" x1="0" y1="0" x2="1" y2="1">
      <stop offset="0%" stop-color="#BFDBFE"/>
      <stop offset="100%" stop-color="#93C5FD"/>
    </linearGradient>
  </defs>
  <rect x="8" y="8" width="204" height="204" rx="44" fill="url(#iconBg)"/>
  <rect x="44" y="40" width="132" height="124" rx="34" fill="#2563EB"/>
  <rect x="64" y="60" width="92" height="84" rx="22" fill="#F8FAFC"/>
  <circle cx="146" cy="102" r="16" fill="#DBEAFE" stroke="#2563EB" stroke-width="7"/>
  <circle cx="96" cy="92" r="5" fill="#1E293B"/>
  <circle cx="120" cy="92" r="5" fill="#1E293B"/>
  <path d="M89 112c6 9 17 9 23 0" fill="none" stroke="#1E293B" stroke-width="5" stroke-linecap="round"/>
  <path d="M170 30c-9 0-16 7-16 16 0 9 10 21 14 26a2 2 0 0 0 4 0c4-5 14-17 14-26 0-9-7-16-16-16z" fill="#0EA5E9"/>
  <text x="246" y="138" font-size="96" font-family="Inter, Arial, sans-serif" font-weight="700" fill="#1E293B" letter-spacing="-1">LooFinder</text>
</svg>
