<svg xmlns="http://www.w3.org/2000/svg" viewBox="0 0 256 256" role="img" aria-label="LooFinder icon">
  <defs>
    <linearGradient id="bg" x1="0" y1="0" x2="1" y2="1">
      <stop offset="0%" stop-color="#BFDBFE"/>
      <stop offset="100%" stop-color="#93C5FD"/>
    </linearGradient>
  </defs>
  <rect width="256" height="256" rx="56" fill="url(#bg)"/>
  <rect x="54" y="60" width="148" height="136" rx="38" fill="#2563EB"/>
  <rect x="76" y="82" width="104" height="92" rx="26" fill="#F8FAFC"/>
  <circle cx="166" cy="128" r="18" fill="#DBEAFE" stroke="#2563EB" stroke-width="8"/>
  <circle cx="112" cy="116" r="6" fill="#1E293B"/>
  <circle cx="140" cy="116" r="6" fill="#1E293B"/>
  <path d="M103 139c7 10 20 10 27 0" fill="none" stroke="#1E293B" stroke-width="6" stroke-linecap="round"/>
  <path d="M194 50c-10 0-18 8-18 18 0 11 11 24 16 30a2 2 0 0 0 4 0c5-6 16-19 16-30 0-10-8-18-18-18z" fill="#0EA5E9"/>
  <circle cx="194" cy="68" r="5" fill="#E0F2FE"/>
</svg>
