<svg width="100" height="120" viewBox="0 0 100 120" fill="none" xmlns="http://www.w3.org/2000/svg">
  <!-- Toilet Paper Sticking Out -->
  <path d="M35 25V15C35 12.2386 37.2386 10 40 10H60C62.7614 10 65 12.2386 65 15V25" fill="white" stroke="#64748B" stroke-width="3"/>
  <path d="M40 18H60" stroke="#CBD5E1" stroke-width="2" stroke-dasharray="4 4"/>
  
  <!-- Jar Lid -->
  <rect x="20" y="25" width="60" height="10" rx="3" fill="#94A3B8" stroke="#475569" stroke-width="3"/>
  <rect x="25" y="35" width="50" height="4" fill="#64748B"/>

  <!-- Jar Body -->
  <path d="M25 39H75V100C75 108.284 68.2843 115 60 115H40C31.7157 115 25 108.284 25 100V39Z" fill="#F0F9FF" fill-opacity="0.9" stroke="#475569" stroke-width="3"/>
  
  <!-- Text inside Jar -->
  <text x="50" y="65" text-anchor="middle" font-family="Arial, sans-serif" font-weight="bold" font-size="8" fill="#475569">SUPPORT US!</text>
  
  <!-- Icons at Bottom -->
  <!-- Heart -->
  <path d="M35 85C35 81.6863 37.6863 79 41 79C44.3137 79 47 81.6863 47 85C47 88.3137 44.3137 91 41 91C37.6863 91 35 88.3137 35 85Z" fill="#38BDF8" fill-opacity="0.6"/>
  
  <!-- Toilet Silhouette -->
  <path d="M55 79H65V90C65 92.2091 63.2091 94 61 94H59V97H55V79Z" fill="#94A3B8"/>
</svg>
